<svg xmlns="http://www.w3.org/2000/svg" viewBox="0 0 490.67 207.18"><defs><style>.cls-1{font-size:57.66px;font-family:Roboto-Bold, Roboto;font-weight:700;}.cls-2{letter-spacing:-0.1em;}.cls-3{letter-spacing:-0.01em;}</style></defs><g id="Layer_2" data-name="Layer 2"><g id="Layer_1-2" data-name="Layer 1"><text class="cls-1" transform="translate(202.91 91.61)">SKYNED<tspan x="0" y="57.66">CONSU</tspan><tspan class="cls-2" x="191.64" y="57.66">L</tspan><tspan class="cls-3" x="217.1" y="57.66">T</tspan><tspan x="252.32" y="57.66">S</tspan></text><path d="M172.87,25.66a5.15,5.15,0,0,0-4.23-5.51c-1.19-.33-2.4-.6-3.59-.9Q126.86,9.74,88.69.27A8.87,8.87,0,0,0,84.56.22C58.17,6.72,31.79,13.31,5.4,19.82,3,20.43,1,21.46,0,23.82v2.69a7,7,0,0,0,5.09,3.9c11.41,2.75,22.78,5.68,34.18,8.45l.23.07,17.28,3.81-15.9-.6c-.05,10.93,0,21.86-.05,32.79a6,6,0,0,0,1.6,4.52,61.69,61.69,0,0,1,88.81-1.15h0a6.63,6.63,0,0,0,.8-3.4c-.07-11.25,0-22.5,0-33.75V39.3l30.73-7.64V94.75c0,.56,0,1.12,0,1.68a5.14,5.14,0,0,0,4.57,4.67,5,5,0,0,0,5.25-3.6,9,9,0,0,0,.27-2.49q0-26.58,0-53.16C172.87,36.45,172.89,31.05,172.87,25.66Z"/><path d="M87.39,193.72h0c-38.37-35.59-67-22.25-67-22.25l-9.7,21.89c55.31-25,76.74,13.82,76.74,13.82s21.43-38.79,76.73-13.82l-9.61-21.69C151.74,171.53,118.81,164.58,87.39,193.72Z"/><path d="M87.88,175.37c29.13.08,53.69-24.12,53.8-53C141.8,91.7,118,67.15,88.3,66.86c-33.46-.33-55.61,27.2-55.2,54.79C33.61,155.18,60.56,175.46,87.88,175.37ZM41.36,126.68a46.49,46.49,0,0,1-.35-5.56,46,46,0,0,1,5.21-21.31c2.85,2,5.63,3.93,8.4,5.89a8.23,8.23,0,0,0,6,1.66A7.86,7.86,0,0,0,66.14,104c1.35-1.89,2.65-3.81,4-5.69s3-2.26,5-.88c.9.6,1.77,1.26,2.68,1.85a7.94,7.94,0,0,0,11-1.91q3.34-4.56,6.49-9.26A7.9,7.9,0,0,0,93.3,77.06c-1-.74-2.06-1.47-3.09-2.22a46.43,46.43,0,0,1,43.54,46.28,45.7,45.7,0,0,1-.48,6.55q-8.25-5.76-16.5-11.54c-6.15-4.29-13-3.1-17.3,3-1.34,1.9-2.71,3.78-4,5.72a11.59,11.59,0,0,0,2.62,15.78c3.82,3,4.27,6.47,1.58,10.56a25.4,25.4,0,0,0-3.34,6.21,10.43,10.43,0,0,0,1.37,8.91,46.63,46.63,0,0,1-17.39.64,9,9,0,0,0,.4-4.29,9.88,9.88,0,0,0-3.67-6.42c-2.92-2.35-3.19-4.8-1.18-8A22.74,22.74,0,0,0,79,142a8.66,8.66,0,0,0-3.53-9.44q-6.37-4.79-13-9.15a9.65,9.65,0,0,0-12.71,2.14C47,128.82,44.84,129.11,41.36,126.68Z"/></g></g></svg>