<svg xmlns="http://www.w3.org/2000/svg" viewBox="0 0 389.55 466.83"><defs><style>.cls-1{fill:#fff;}</style></defs><g id="Layer_2" data-name="Layer 2"><g id="Layer_1-2" data-name="Layer 1"><path class="cls-1"/><path class="cls-1" d="M389.53,57.81c0-6.68-3.12-10.69-9.52-12.41-2.69-.73-5.41-1.35-8.11-2Q285.88,22,199.84.61a20,20,0,0,0-9.29-.12C131.07,15.14,71.64,30,12.18,44.67,6.67,46,2.35,48.35,0,53.66v6.09c2.35,4.85,6.08,7.48,11.46,8.77,25.71,6.19,51.33,12.79,77,19l.53.14L128,96.31,92.11,95c-.1,24.63,0,49.26-.11,73.9,0,4.23,1.09,7.65,3.61,10.17a139,139,0,0,1,200.12-2.58h0a14.83,14.83,0,0,0,1.8-7.68c-.14-25.35-.06-50.7-.06-76V88.56l69.24-17.22V213.5c0,1.26-.07,2.53,0,3.79a11.57,11.57,0,0,0,10.29,10.51,11.17,11.17,0,0,0,11.84-8.09,20.29,20.29,0,0,0,.61-5.61q.06-59.91,0-119.79c0-12.17,0-24.34,0-36.5Z"/><path class="cls-1" d="M196.91,436.51h0c-86.45-80.19-151-50.15-151-50.15L24,435.7c124.63-56.27,172.91,31.13,172.91,31.13s48.29-87.39,172.92-31.12l-21.66-48.89c-6.24-.31-80.46-16-151.26,49.69Z"/><path class="cls-1" d="M93.19,285.45a103.52,103.52,0,0,1,11-60.55c6.42,4.48,12.7,8.86,19,13.27,4,2.85,8.45,4.42,13.43,3.74A17.74,17.74,0,0,0,149,234.45c3-4.26,6-8.59,9.05-12.84,3.24-4.5,6.72-5.09,11.36-2,2,1.37,4,2.84,6,4.18,8.44,5.49,18.88,3.77,24.82-4.32q7.54-10.26,14.61-20.85c5.69-8.51,3.68-18.93-4.66-25-2.31-1.68-4.64-3.33-7-5a104.33,104.33,0,0,1,97,119.05q-18.58-13-37.18-26c-13.86-9.66-29.26-7-39,6.77-3,4.28-6.1,8.51-9,12.89-7.78,12-5.29,26.69,5.91,35.55,8.6,6.81,9.61,14.57,3.55,23.79-2.91,4.42-6,9-7.52,14-2.19,7.17-.8,14,3.08,20.07a104.08,104.08,0,0,1-23.3,2.65,105.21,105.21,0,0,1-15.87-1.2,20.32,20.32,0,0,0,.89-9.67,22.26,22.26,0,0,0-8.27-14.46c-6.59-5.31-7.19-10.82-2.67-17.94,2.83-4.44,5.84-9.12,7.12-14.11,2.15-8.49-1-16-8-21.27Q155.78,288,140.71,278.13c-9.27-6.08-21.4-3.78-28.63,4.82-6.16,7.32-11,8-18.89,2.5ZM198,395.17c65.64.17,121-54.36,121.23-119.45.27-69.1-53.33-124.42-120.28-125.07C123.58,149.93,73.65,212,74.59,274.12,75.73,349.66,136.45,395.37,198,395.17Z"/></g></g></svg>